<svg viewBox="0 0 205.63 221.92" xmlns="http://www.w3.org/2000/svg"><path d="m0 0h205.63v221.92h-205.63z" fill="#d53531"/><path d="m10.77 58.38h184.09v112.87h-184.09z" fill="#0382bf"/><path d="m185.43 29.24v-.09c0-4.84-3.41-9-8.48-9s-8.44 4.08-8.44 8.86v.1c0 4.78 3.46 9 8.53 9s8.39-4.07 8.39-8.86m-26.3 0v-.09c0-9.53 7.68-17.25 17.91-17.25s17.82 7.63 17.82 17.15v.1c0 9.52-7.68 17.25-17.91 17.25s-17.82-7.63-17.82-17.16m-20.8-16.68h9.19v33.17h-9.19zm-34 8.1v16.91h3.75c5.54 0 9.19-3 9.19-8.39v-.09c0-5.31-3.65-8.44-9.19-8.44zm-9.19-8.1h12.86c11.81 0 18.68 6.82 18.68 16.4v.09c0 9.58-7 16.69-18.86 16.69h-12.66zm-32.22 20 3.75-9.39 3.7 9.39zm8.25-20.29h-8.84l-14.08 33.46h9.62l2.37-6h12.85l2.36 6h9.86zm-45.09 16.2c3.08 0 4.92-1.48 4.92-3.93v-.1c0-2.65-1.94-4-5-4h-6v8zm-15.31-15.92h15.69c5.07 0 8.58 1.33 10.81 3.55a10.39 10.39 0 0 1 2.94 7.73v.09a10.52 10.52 0 0 1 -6.83 10.24l7.91 11.57h-10.56l-6.73-10.05h-4v10.05h-9.2zm56.31-7.37h9.84l-5.92 5.07h-7.77z" fill="#fff"/><path d="m166.09 211.66h8.28v-7.77l3-3.33 7.56 11.1h9.9l-11.7-17.08 11.32-12.81h-9.75l-10.33 12.13v-12.13h-8.28zm-17.16 0h8.28v-29.89h-8.28zm-37.13 0h8.2v-16.4l12.8 16.4h7.2v-29.89h-8.2v15.8l-12.29-15.8h-7.71zm-26.46-11.83 3.37-8.45 3.29 8.45zm-13.24 11.83h8.67l2.13-5.38h11.57l2.14 5.38h8.88l-12.72-30.1h-8zm-27.4 0h22.76v-7.26h-14.46v-22.63h-8.3zm-15.49-9.48v.08c0 1.75-1.4 2.74-4 2.74h-6.4v-5.51h6.32c2.77 0 4.05 1.07 4.05 2.69m-1.18-11.1c0 1.75-1.45 2.6-4 2.6h-5.16v-5.25h5.42c2.43 0 3.76.9 3.76 2.56zm-17.23 20.58h15.41c7.13 0 11.32-3.12 11.32-8.24v-.09c0-4.06-2.31-6.1-5.94-7.3 2.65-1.15 4.61-3.2 4.61-6.66v-.08a6.72 6.72 0 0 0 -1.92-4.87c-1.75-1.71-4.39-2.65-8.15-2.65h-15.33zm142.28-37.75h9.84l-5.89 5.09h-7.78z" fill="#fff"/><path d="m25.62 145.9a57.21 57.21 0 0 0 2.66 7.19l-17.51 10.91v-13.88zm110.53-2.05 58.71 12.33v15.07h-1.16l-60.09-19.76a56.54 56.54 0 0 0 2.54-7.64m58.71-85.47v9.55l-67 29.38a57.52 57.52 0 0 0 -3.68-4.8l47.44-34.13zm-58.86 56.47 58.86-10.85v16.62l-57.46 1.5a56.48 56.48 0 0 0 -1.43-7.26m-96.97-24.57-28.23-18.29v-13.62h5.23l27.62 27.53a59.91 59.91 0 0 0 -4.62 4.38m-14.1 25.9-14.13-.66v-9.89l16.61 2.77a56.83 56.83 0 0 0 -2.48 7.78m80.93-38a55.9 55.9 0 0 0 -6.48-2.69l6.06-17.15h14.87zm-41.57-3.44-5.13-16.37h12.3l.11 14.71a57 57 0 0 0 -7.28 1.66m44.86 53a29.41 29.41 0 0 1 -45.82 20.87 4.14 4.14 0 1 1 4.7-6.85 21.16 21.16 0 0 0 32.93-15 4.14 4.14 0 0 1 8.23 1m-49.87 3.31a4.64 4.64 0 1 1 6 2.61 4.64 4.64 0 0 1 -6-2.61m31.71-17.79a4.65 4.65 0 1 1 -2.61 6 4.66 4.66 0 0 1 2.61-6m-10.4-32.74a48.55 48.55 0 0 0 -24.11 90.7h48.22a48.55 48.55 0 0 0 -24.11-90.7" fill="#fce900"/></svg>