<svg version="1.2" xmlns="http://www.w3.org/2000/svg" viewBox="0 0 1920 1080" width="100" height="100">
	<title>freshostrava-svg</title>
	<defs>
		<linearGradient id="g1" x2="1" gradientUnits="userSpaceOnUse" gradientTransform="matrix(0,-291.258,213.169,0,411.497,922.565)">
			<stop offset=".004" stop-color="#ffbc00"/>
			<stop offset="1" stop-color="#ff0000"/>
		</linearGradient>
		<linearGradient id="g2" x2="1" gradientUnits="userSpaceOnUse" gradientTransform="matrix(0,-291.258,281.556,0,684.353,922.565)">
			<stop offset=".004" stop-color="#ffbc00"/>
			<stop offset="1" stop-color="#ff0000"/>
		</linearGradient>
		<linearGradient id="g3" x2="1" gradientUnits="userSpaceOnUse" gradientTransform="matrix(0,-291.258,220.268,0,947.032,922.565)">
			<stop offset=".004" stop-color="#ffbc00"/>
			<stop offset="1" stop-color="#ff0000"/>
		</linearGradient>
		<linearGradient id="g4" x2="1" gradientUnits="userSpaceOnUse" gradientTransform="matrix(0,-298.858,245.965,0,1190.848,927.631)">
			<stop offset=".004" stop-color="#ffbc00"/>
			<stop offset="1" stop-color="#ff0000"/>
		</linearGradient>
		<linearGradient id="g5" x2="1" gradientUnits="userSpaceOnUse" gradientTransform="matrix(0,-291.258,278.46,0,1475.524,922.565)">
			<stop offset=".004" stop-color="#ffbc00"/>
			<stop offset="1" stop-color="#ff0000"/>
		</linearGradient>
		<linearGradient id="g6" x2="1" gradientUnits="userSpaceOnUse" gradientTransform="matrix(1070.677,0,0,465.968,424.816,287.103)">
			<stop offset=".004" stop-color="#ffbc00"/>
			<stop offset=".264" stop-color="#ff8800"/>
			<stop offset=".771" stop-color="#ff2700"/>
			<stop offset="1" stop-color="#ff0000"/>
		</linearGradient>
	</defs>
	<style>
		.s0 { fill: url(#g1) } 
		.s1 { fill: url(#g2) } 
		.s2 { fill: url(#g3) } 
		.s3 { fill: url(#g4) } 
		.s4 { fill: url(#g5) } 
		.s5 { fill: url(#g6) } 
		.s6 { fill: #ff0000 } 
		.s7 { fill: #ff8b00 } 
	</style>
	<g id="FRESH">
		<g id="Layer">
			<path id="Layer" class="s0" d="m413.4 717v32.1h98.4v85.3h-97.1v88.2l-109.8-34.4v-256.9h213.2v85.7z"/>
			<path id="Layer" fill-rule="evenodd" class="s1" d="m767.3 812.8l57.8 109.7h-124.9l-37.2-94.1h-9.7v94.1h-109.7v-291.2h125.8c54.5 0 78.9 6.3 100.9 21.5 22 14.8 39.7 43.1 39.7 77.2-0.1 44-18.6 67.6-42.7 82.8zm-92.9-100h-24.5v43.9h24.5c15.2 0 24.1-8.4 24.1-23.6 0-13.6-11.8-20.3-24.1-20.3z"/>
			<path id="Layer" class="s2" d="m836.9 922.6v-291.3h216.1v82.7h-107.7v22h102.2v80.6h-102.2v22.4h111.9v83.6z"/>
			<path id="Layer" class="s3" d="m1274.2 902.3c-24.5 18.6-54.9 25.3-89.9 25.3-29.5 0-68.8-3-116.5-36.3l42.6-78.5c28.3 20.7 63.3 30.4 84.8 30.4 10.1 0 17.3-2.5 17.3-6.8 0-5.1-4.6-6.8-26.6-10.1-28.7-4.2-64.2-20.3-79.4-33.3-16-13.1-28.3-30.4-28.3-64.2 0-33.3 18.2-59.1 35.5-73.9 18.6-15.2 49-26.2 90.3-26.2 41.4 0 81.5 12.7 109.3 34.6l-40.1 72.2c-31.2-20.7-53.6-26.2-73.4-26.2-10.1 0-18.6 2.1-18.6 7.2 0 4.6 5.9 6.3 23.2 8.9 21.5 3 46.4 12.7 62.5 21.1 32.9 17.7 46.9 39.3 46.9 77.2 0.1 31.7-15.5 59.6-39.6 78.6z"/>
			<path id="Layer" class="s4" d="m1505.5 922.6v-100.5h-59.9v100.5h-109.3v-291.3h109.3v102.2h59.9v-102.2l109.3 34v257.3z"/>
		</g>
	</g>
	<g id="linka">
		<path id="Layer" class="s5" d="m437.9 519.3q100.9-150.3 201.9-300.6c18.6-27.7 37.2-55.4 55.9-83.2 9.8-14.6 18.9-30.4 29.7-44.3 29.3-37.5 95.2-3.6 90.2 40.7-2.5 22.3-7.6 44.6-11.4 66.7-9.9 58.4-18.8 117.1-29.9 175.3-3.5 18.4-11 38.9-3.5 57.1 9.4 22.9 36.7 36.5 60.7 31.1 25.2-5.7 43.1-37.2 58.3-55.9 24.7-30.2 49.3-60.5 74-90.7 19-23.4 36.9-54.1 72.5-43.3 21.4 6.5 34 24.4 33.7 46.3-0.2 16.7-0.8 33.3-1.2 50-0.3 14-1.2 28.2-1 42.3 0.5 26 21.7 46.8 47.7 47.5 18.4 0.5 30.4-10.1 42.5-22 12.8-12.6 25.6-25.3 38.4-37.9 8.8-8.7 17.3-18.8 26.9-26.6 11.1-9.1 28.3-7.1 36.8 4.9 4.4 6.2 4.4 14.2 7.6 21 3.2 6.8 8 12.5 14 17.1 19.9 15.4 48 13.7 65.1-4.9 8.4-9.1 16.1-19 24.1-28.5 21.8-25.7 43.1-51.9 65.4-77.3 15.1-17.3 45-8.6 44.1 16-0.6 17.4 26.5 17.4 27.1 0 1.1-30.8-26.3-54.9-56.6-52.7-17.1 1.2-28.5 11.3-38.8 23.6-23.9 28.2-47.8 56.5-71.7 84.7-6.9 8.1-14.9 21.7-26.5 22.5-19.7 1.4-20.7-15.5-26.7-28.8-6.3-14.1-19.1-24.6-34-28.7-39.5-11-68.2 30.9-92.8 55.1-9.9 9.8-19.5 21.1-30.3 30-8.7 7.2-20.4 6.9-28.9-0.9-6.1-5.6-6.2-12.1-6.1-19.6 0.7-30.6 2.8-61.5 2.1-92.1-1.5-60.5-82.5-95.1-125.4-50.2-17.4 18.2-32.4 39.5-48.3 59-24.1 29.6-48.3 59.2-72.4 88.9-4.5 5.5-8.7 11.3-13.5 16.5-17.5 18.9-46.9 2.5-42.1-22 11.9-59.7 21.2-120 31.4-180 4.7-27.9 9.7-55.7 14.2-83.6 3.1-19.2 1.4-38.1-9.5-54.9-16.2-24.9-47.5-40.4-77.5-37.9-28.6 2.3-45.6 19-60.3 40.8-14.1 21-28.2 41.9-42.2 62.9-77.3 115-154.6 230.1-231.9 345.1-1.7 2.6-3.5 5.2-5.2 7.8-9.8 14.6 13.7 28.1 23.4 13.7z"/>
	</g>
	<g id="_x31_036">
		<g id="Layer">
			<path id="Layer" class="s6" d="m1081.6 588.1v-65.2h-13.8v-21.3h45v86.5z"/>
			<path id="Layer" fill-rule="evenodd" class="s6" d="m1162.6 589.6c-28.1 0-39.7-21.2-39.7-44.6 0-23.3 11.5-44.6 39.7-44.6 28.5 0 40 21.3 40 44.6 0 23.4-11.5 44.6-40 44.6zm0-62.3c-7 0-8.4 8.1-8.4 17.3 0 9.2 1.4 17.7 8.4 17.7 7.3 0 8.7-8.5 8.7-17.7 0-9.2-1.4-17.3-8.7-17.3z"/>
			<path id="Layer" class="s6" d="m1278.4 561.2c0 19.6-19.3 28.2-37.6 28.2-18.3 0-31.1-5.5-36.9-13.7l13.2-19.3c6.3 6.9 14.9 8.7 21.7 8.7 5.5 0 9.7-1.6 9.7-6 0-4.1-3.3-5.3-8.8-5.3h-9.3v-21.2h9c4 0 5.8-1.4 5.8-4.5 0-3.1-2.8-4.4-6.9-4.4-4 0-12.9 1-20.7 6.1l-10.3-20.8c6-4 16.2-8.8 33.1-8.8 20.8 0 35.1 8.9 35.1 24.2 0 8.4-4.9 14-10.8 17.7 8.7 3.3 13.7 11.2 13.7 19.1z"/>
			<path id="Layer" class="s6" d="m1303.3 589.4c-10.3 0-17.2-5.1-17.2-14.9 0-9.8 6.9-15 17.2-15 10 0 17.1 5.3 17.1 15 0 9.8-7 14.9-17.1 14.9z"/>
			<path id="Layer" fill-rule="evenodd" class="s6" d="m1365.5 589.4c-20.9 0-40.1-14.7-40.1-44 0-26.3 13.9-45.1 43-45.1 13.9 0 25.3 4 29.8 7.8l-10.4 20.6c0 0-7.4-4.1-17.9-4.1-8.9 0-13.8 4.5-13.8 11.7 1.9-1.8 7.9-5.4 18.8-5.4 13 0 27.1 8.4 27.1 26.2 0 17.7-13.2 32.3-36.5 32.3zm-1.2-38.4c-4.3 0-7.8 3.1-7.8 7.6 0 4.6 3.9 7.6 8 7.6 4.4 0 7.4-3.6 7.5-7.6 0.2-4.4-3.6-7.6-7.7-7.6z"/>
			<path id="Layer" class="s6" d="m1467.7 527v9.5h29.2v25.3h-28.8v26.2h-32.6v-86.5h63.3v25.5z"/>
			<path id="Layer" class="s6" d="m1614.8 588.1h-31.6l-1-50.7-9 50.7h-28.2l-9.8-50-0.2 50h-32.1l6.3-86.5h41.9l8.4 47.3 9.8-47.3h39.6z"/>
		</g>
	</g>
	<g id="radio">
		<g id="Layer">
			<path id="Layer" fill-rule="evenodd" class="s7" d="m1090.3 1002l19.5 29.9h-8.9l-18.2-29.3h-7.8v29.3h-7.1v-65.7h17.8c11.4 0 20.4 5.6 20.4 18.1 0 9.8-6.7 15.8-15.7 17.7zm-15.4-29.7v24.1h6.9c8.5 0 16.8-1.7 16.8-12 0-9.7-7.5-12.1-15.8-12.1z"/>
			<path id="Layer" fill-rule="evenodd" class="s7" d="m1229.1 1013.5h-30l-7.3 18.4h-7.4l27.3-65.9h5.4l27.4 65.9h-8.1zm-14.9-37.8l-12.6 31.5h25z"/>
			<path id="Layer" fill-rule="evenodd" class="s7" d="m1323.1 966.2h18.9c19.8 0 34.5 12.7 34.5 32.9 0 19.8-15.2 32.7-34.5 32.7h-18.9zm45.9 32.8c0-16.6-10.9-26.6-27.2-26.6h-11.6v53.1h11.6c15.7 0.1 27.2-10.4 27.2-26.5z"/>
			<path id="Layer" class="s7" d="m1458.5 966.2h7.1v65.7h-7.1z"/>
			<path id="Layer" fill-rule="evenodd" class="s7" d="m1547.6 999.1c0-20.9 15.5-33.9 33.6-33.9 18 0 33.6 12.9 33.6 33.9 0 21-15.4 33.9-33.6 33.9-18.1 0-33.6-12.8-33.6-33.9zm59.9-0.1c0-17.2-12-27.4-26.3-27.4-14.2 0-26.3 10.1-26.3 27.4 0 17.1 12.2 27.5 26.3 27.5 14.3 0 26.3-10.3 26.3-27.5z"/>
		</g>
	</g>
</svg>
