<?xml version="1.0" encoding="utf-8"?>
<!-- Generator: Adobe Illustrator 16.0.0, SVG Export Plug-In . SVG Version: 6.00 Build 0)  -->
<!DOCTYPE svg PUBLIC "-//W3C//DTD SVG 1.1//EN" "http://www.w3.org/Graphics/SVG/1.1/DTD/svg11.dtd">
<svg version="1.1" id="Vrstva_1" xmlns="http://www.w3.org/2000/svg" xmlns:xlink="http://www.w3.org/1999/xlink" x="0px" y="0px"
	 width="133.9px" height="134.2px" viewBox="0 0 133.9 134.2" enable-background="new 0 0 133.9 134.2" xml:space="preserve">
<g>
	<defs>
		<rect id="SVGID_1_" x="-84.8" y="-79" width="300" height="300"/>
	</defs>
	<clipPath id="SVGID_2_">
		<use xlink:href="#SVGID_1_"  overflow="visible"/>
	</clipPath>
	<path clip-path="url(#SVGID_2_)" d="M132.8,97.6v-74c0-2.4,0-9,0-9s-6.3,0-8.8,0H25.6c-4.8,0-8.7,4.1-8.7,9v73.5L132.8,97.6z"/>
	<path clip-path="url(#SVGID_2_)" fill="#FFFFFF" d="M88.4,52.4c1.2-1.5,1.6-3.4,1-4.9c-0.5-1.4-1.7-2.8-2.8-4.3
		c-2.3-2.9-4.8-5.9-3.3-9.9c3.1-8.3,12.2-7,17.8-5.3c-0.6,0.9-3.1,4.4-3.4,4.9c-0.6-0.3-2.7-1.3-2.7-1.3c-1.5-0.7-3.3-0.5-4.5,0.5
		c-1,0.8-1.3,2-0.9,3.3c0.4,1.4,1.3,2.5,2.2,3.6c0.6,0.7,1.2,1.5,1.6,2.2c1.6,3.1,3.3,6.6,2.4,10.3c-0.8,3.3-3.4,6.3-6.8,7.7
		c-3,1.3-6.1,1.2-8.5-0.2c-1.4-0.8-3.6-2.7-4.1-4.1L76,54.4L75.4,55c-0.6,0.6-8.7,4.8-12.4,3.9c-0.8-0.2-1.3-0.6-1.6-1.3
		c-0.8-2.4,0.4-5.2,1.4-7.6l0.5-1.2l3.6-8.5l0.2-0.6c0.3-0.7,0.6-1.4,0.7-2.1L68,37h-0.8L67,37c-0.2,0.1-2.4,0.9-4,1.4
		c-0.2-0.6-0.5-1.9-0.7-2.4c0.7-0.3,9.1-4.7,9.1-4.7c2.9-1.5,5.6-2.8,7.1-3.7C78.1,29.1,77,31.6,76,34c-5.4,12.7-6.9,16.5-6.9,17.8
		c0,0.2,0,0.3,0.1,0.4c0.6,0.9,2.4,0.1,7.6-2.5c0.8-0.4,1.5-0.8,2.1-1c0.6,2.9,3.1,5.7,6.4,5.6C86.2,54.4,87.4,53.7,88.4,52.4
		 M79.3,26.2c-0.9,0.5-4.4,2.3-8.2,4.3l-9.8,5.1l0.1,0.4l1,3.8l0.5-0.2c0.7-0.2,2.7-0.9,3.8-1.3c-0.1,0.4-0.3,0.7-0.4,1.1L66,39.9
		l-3.6,8.5l-0.5,1.2c-0.9,2-1.8,4.1-1.8,6.3c0,0.7,0.1,1.4,0.3,2.1c0.4,1.1,1.3,1.7,2.6,2c3.7,0.6,10.6-2.6,12.6-3.9
		c-1.2-2.3,4.9,4.4,4.2,4c2.7,1.6,6.2,1.7,9.4,0.3c3.7-1.6,6.6-4.8,7.4-8.4c0.9-4-0.8-7.8-2.5-11c-0.4-0.8-1.1-1.6-1.7-2.4
		c-0.9-1.1-1.7-2.1-2-3.3c-0.3-0.9,0-1.7,0.6-2.3c0.9-0.8,2.3-0.9,3.4-0.4l3.5,1.6l4.7-6.7l-0.6-0.2c-4.7-1.5-16.1-4.1-19.7,5.7
		c-1.6,4.5,1.1,7.9,3.5,10.9c1.1,1.4,2.2,2.7,2.7,4c0.5,1.4-0.1,2.9-0.9,3.9c-0.7,0.9-1.7,1.5-2.3,1.4c-3.1,0.1-5.3-2.7-5.6-5.4
		l-0.1-0.6l-0.6,0.2c-0.5,0.2-1.5,0.7-2.7,1.3c-1.8,0.9-5.3,2.7-6.3,2.8c0.2-1.8,4.3-11.3,6.8-17.1c2.5-5.9,3.2-7.4,3.2-7.8v-0.9
		L79.3,26.2z"/>
	<path clip-path="url(#SVGID_2_)" fill="#FFFFFF" d="M110.1,52.4c1.2-1.5,1.6-3.4,1-4.9c-0.5-1.4-1.7-2.8-2.8-4.3
		c-2.3-2.9-4.8-5.9-3.3-9.9c3.1-8.3,12.2-7,17.9-5.3c-0.6,0.9-3,4.4-3.4,5c-0.6-0.3-3-1.3-3-1.3c-1.5-0.7-3.2-0.5-4.3,0.4
		c-0.9,0.8-1.3,2-0.9,3.3c0.4,1.4,1.3,2.5,2.2,3.6c0.6,0.7,1.2,1.4,1.6,2.2c1.6,3.1,3.3,6.6,2.4,10.3c-0.8,3.3-3.4,6.3-6.8,7.7
		c-3,1.3-6.1,1.2-8.5-0.2c-1.4-0.8-4.4-3.3-5-4.8c0.5-0.8,2.2-3.3,3.6-5.3c0.8,2.7,3.2,5.1,6.3,5.1
		C107.9,54.4,109.1,53.7,110.1,52.4 M104,33c-1.7,4.5,1.1,7.9,3.5,10.9c1.1,1.4,2.2,2.7,2.7,4c0.5,1.4-0.1,2.9-0.9,3.9
		c-0.7,0.9-1.7,1.5-2.3,1.4c-3.1,0.1-5.3-2.7-5.6-5.4l-0.1-1.4l-0.8,1.1c-4.8,6.9-4.8,6.9-4.4,7.3L96,54.6c0.6,1.8,4.2,4.7,5.5,5.5
		c2.7,1.6,6.2,1.7,9.4,0.3c3.7-1.6,6.6-4.8,7.4-8.4c1-4-0.8-7.8-2.5-11c-0.4-0.8-1.1-1.6-1.7-2.4c-0.9-1.1-1.7-2.1-2-3.3
		c-0.3-0.9-0.1-1.8,0.6-2.3c0.8-0.7,2.1-0.8,3.3-0.3l3.8,1.6l0.2-0.3l4.4-6.4l-0.6-0.2C119,25.7,107.6,23.2,104,33"/>
	<path clip-path="url(#SVGID_2_)" fill="#FFFFFF" d="M79.7,18.9c0-2,1.6-3.6,3.6-3.6c2,0,3.6,1.6,3.6,3.6c0,2-1.6,3.6-3.6,3.6
		C81.3,22.5,79.7,20.9,79.7,18.9 M78.7,18.9c0,2.5,2.1,4.6,4.6,4.6c2.5,0,4.6-2.1,4.6-4.6c0-2.5-2.1-4.6-4.6-4.6
		C80.8,14.3,78.7,16.4,78.7,18.9"/>
	<path clip-path="url(#SVGID_2_)" fill="#FFFFFF" d="M74.6,3l-0.3-1c-7.2,3.7-21.1,12-34.2,25.9l-0.5,1.9C53,15.4,67.3,6.8,74.6,3"
		/>
	<path clip-path="url(#SVGID_2_)" fill="#FFFFFF" d="M47.1,77.4c-1.2-2.8-8.6-20-10-34.8L37,41.8l-0.7,0.4
		c-8.5,5.2-17.3,38.1-17.3,55.2c0,2.5,0.2,4.6,0.6,6.3c-2,0.4-5.6,1.5-9.1,2.5c-3.4,1-6.8,2-8.8,2.5C3.3,94.9,22.6,30.2,40.6,1.9
		c0.3,0,2.7,0,4.8,0l0.7-1l-6.1,0l-0.1,0.2C21.5,29.9,1.7,96.9,0.7,109.3L0.7,110l0.6-0.1c1.9-0.3,5.8-1.5,9.6-2.6
		c3.8-1.1,7.6-2.3,9.5-2.6l0.5-0.1l-0.1-0.6c-0.4-1.6-0.7-3.8-0.7-6.4c0-16.2,8.2-47.8,16.1-54c1.8,16,10.1,34.5,10.2,34.6l0.1,0.3
		l0.4,0c0.1,0,0.2,0,3.9-1.8l-0.5-0.9C48.9,76.6,47.7,77.1,47.1,77.4"/>
	<path clip-path="url(#SVGID_2_)" fill="#ED1C24" d="M103.3,30.2L99.2,36c0,0-2.5-1.2-3.1-1.4c-2.4-1.1-5.5,0.4-4.7,3.2
		c0.6,2.2,2.7,3.8,3.7,5.8c1.7,3.3,3.3,6.9,2.4,10.7c-1.5,6.5-10,11.4-16.1,7.8c-1.4-0.8-3.8-2.7-4.3-4.4C76.6,58.4,64,65,62.3,60.2
		c-1.1-3,0.8-6.5,2-9.2c1.2-2.8,2.4-5.6,3.6-8.5c0.3-0.8,0.8-1.7,0.9-2.6h-0.1C68.3,40,64,41.5,64,41.5l-0.9-3.3
		c5.4-2.9,16-8.2,17.7-9.1c0,0.9-10.7,24.2-9.9,25.3c0.7,1,8.1-3.4,9.6-4c0.3,2.8,2.8,5.9,6,5.8c1.8,0.2,4.8-3.2,3.7-6
		c-1.6-4.2-8.5-8.2-6.1-14.6C87.2,27.3,96.3,27.9,103.3,30.2"/>
	<path clip-path="url(#SVGID_2_)" fill="#ED1C24" d="M124.9,30.2l-4,5.9c0,0-2.8-1.2-3.4-1.4c-2.4-1.1-5.3,0.4-4.5,3.2
		c0.6,2.2,2.7,3.8,3.7,5.8c1.8,3.3,3.3,6.9,2.4,10.7c-1.5,6.5-10,11.4-16.1,7.8c-1.4-0.8-4.8-3.6-5.3-5.2c-0.6,0.7,4.4-6.5,4.4-6.5
		c0.3,2.8,2.8,5.9,6,5.8c1.8,0.2,4.8-3.2,3.7-6c-1.6-4.2-8.5-8.2-6.1-14.6C108.9,27.3,118,27.9,124.9,30.2"/>
	<path clip-path="url(#SVGID_2_)" fill="#ED1C24" d="M88.7,21.3c0,2.3-1.8,4.1-4.1,4.1c-2.3,0-4.1-1.8-4.1-4.1
		c0-2.3,1.8-4.1,4.1-4.1C86.9,17.3,88.7,19.1,88.7,21.3"/>
	<path clip-path="url(#SVGID_2_)" fill="#ED1C24" d="M131.8,12.9l-8.7,0H75.4C83.2,8,91,3.8,95.9,1.8c0,0-12.9,0.1-15.3,0.1
		C80,2.1,58.4,11.3,39.5,32.4h-0.1c0.1-6,7.8-19.1,13.4-29.4H41.6c-1.9,2.9-3.9,6.3-5.8,10H25.4c-6,0-10.8,5-10.8,11.2v43.1
		c-5.7,18.3-9.6,34.2-10,39.7c2.1-0.3,6.1-1.1,10-1.8v19.7c0,2.7,0,9.3,0,9.3h110.3c5,0,9-4.2,9-9.3v-24.4h0V24.2l0-11.3L131.8,12.9
		z M18.9,24.2c0-3.7,2.9-6.8,6.5-6.8h8.2C28.3,28.3,23.3,41.3,18.9,54V24.2z M129.6,24.2v71.4H32.8c-4.7,0-8.4,0-10.9,0
		c0.4-17,8-47.7,16-52.5c2.7,13,13.7,32.9,13.7,32.9c0.3,0,11.7-5.1,11.7-5.1c0-0.1-17.1-22.1-16.3-32.5
		c0.8-4.9,10.6-13.3,21.6-20.9h54.5c0,0,4.1,0,6.5,0C129.6,19.9,129.6,24.2,129.6,24.2"/>
	<path clip-path="url(#SVGID_2_)" fill="#FFFFFF" d="M69,90.1h-3.8L69,72h7c1.3,0,2.2,0.4,2.8,1.2c0.6,0.8,0.7,2,0.4,3.5
		c-0.2,1.2-0.7,2.1-1.4,2.9c-0.7,0.8-1.6,1.3-2.9,1.5l0,0c0.2,0,0.5,0.1,0.8,0.2c0.3,0.1,0.7,0.2,1,0.5s0.6,0.6,0.7,1
		c0.2,0.5,0.2,1.1,0,1.9c-0.1,0.3-0.1,0.7-0.2,1.2C77.1,86.5,77,87,77,87.6c-0.1,0.6-0.1,1.1-0.2,1.5c0,0.5,0,0.8,0,1h-3.7
		c-0.1-0.6-0.1-1.1,0-1.7s0.2-1.2,0.4-1.8c0.1-0.5,0.2-1,0.3-1.5c0.1-0.5,0.1-0.9,0-1.3c-0.1-0.4-0.3-0.6-0.6-0.9
		c-0.3-0.2-0.9-0.3-1.6-0.3h-1L69,90.1z M71.1,79.8h1.7c0.4,0,0.7-0.1,1-0.3c0.3-0.2,0.5-0.4,0.7-0.6c0.2-0.3,0.4-0.5,0.5-0.9
		c0.1-0.3,0.2-0.6,0.3-0.9c0.2-0.9,0.1-1.5-0.1-1.8c-0.3-0.4-0.7-0.5-1.3-0.5h-1.7L71.1,79.8z"/>
	<path clip-path="url(#SVGID_2_)" fill="#FFFFFF" d="M88.5,87.7c-0.1,0.4-0.1,0.8-0.2,1.2c0,0.4-0.1,0.8-0.1,1.2h-3.3l0.2-1.7h0
		c-1,1.3-2.2,1.9-3.7,1.9c-0.6,0-1.1-0.1-1.5-0.3s-0.7-0.5-0.8-0.9c-0.2-0.4-0.3-0.8-0.3-1.3c0-0.5,0-1,0.1-1.6
		c0.2-1.1,0.6-1.9,1.1-2.5s1.1-1,1.7-1.3c0.7-0.3,1.4-0.4,2.2-0.5c0.8-0.1,1.6-0.1,2.4-0.1l0.2-1c0-0.3,0.1-0.5,0.1-0.7
		s0-0.4-0.1-0.6c-0.1-0.2-0.2-0.3-0.3-0.4c-0.2-0.1-0.4-0.1-0.7-0.1c-0.3,0-0.5,0.1-0.8,0.2c-0.2,0.1-0.4,0.3-0.5,0.4
		s-0.2,0.4-0.3,0.6s-0.1,0.5-0.2,0.7h-3.5c0.2-0.8,0.4-1.4,0.7-1.9c0.3-0.5,0.7-0.9,1.2-1.2c0.5-0.3,1-0.5,1.6-0.6
		c0.6-0.1,1.2-0.2,1.9-0.2c1.1,0,2,0.1,2.6,0.3c0.6,0.2,1.1,0.5,1.3,0.9c0.3,0.4,0.4,0.8,0.4,1.4c0,0.5-0.1,1.1-0.2,1.6L88.5,87.7z
		 M85.8,84c-0.4,0-0.8,0-1.2,0c-0.4,0-0.7,0.1-1,0.2s-0.6,0.3-0.8,0.6c-0.2,0.3-0.4,0.7-0.5,1.3c-0.1,0.2-0.1,0.5-0.1,0.7
		s0,0.4,0,0.6c0.1,0.2,0.2,0.4,0.3,0.5c0.1,0.1,0.4,0.2,0.6,0.2c0.5,0,0.9-0.2,1.2-0.5s0.6-0.7,0.7-1.1c0.2-0.4,0.3-0.9,0.4-1.4
		C85.7,84.7,85.7,84.3,85.8,84"/>
	<path clip-path="url(#SVGID_2_)" fill="#FFFFFF" d="M96.6,90.1l0.3-1.4h0c-0.5,0.6-0.9,1.1-1.5,1.3c-0.5,0.2-1.2,0.4-1.8,0.4
		c-0.9,0-1.6-0.2-1.9-0.7c-0.4-0.5-0.6-1-0.7-1.7c-0.1-0.7,0-1.4,0.1-2.2c0.1-0.8,0.3-1.5,0.4-2.1c0.1-0.6,0.3-1.3,0.5-2.1
		c0.2-0.8,0.4-1.5,0.8-2.1c0.3-0.7,0.8-1.2,1.4-1.6c0.6-0.4,1.3-0.7,2.2-0.7c0.6,0,1.2,0.1,1.6,0.3c0.4,0.2,0.7,0.6,1,1.1h0.1
		l1.4-6.7h3.5L100,90.1H96.6z M95.4,88.2c0.3,0,0.6-0.1,0.8-0.3c0.2-0.2,0.4-0.4,0.6-0.8c0.2-0.4,0.3-0.8,0.5-1.4s0.3-1.3,0.5-2.1
		c0.1-0.6,0.2-1.2,0.3-1.7c0.1-0.5,0.1-1,0.1-1.4c0-0.4-0.1-0.7-0.2-0.9c-0.2-0.2-0.4-0.3-0.8-0.3c-0.4,0-0.7,0.1-0.9,0.3
		c-0.2,0.2-0.5,0.5-0.6,0.9c-0.2,0.4-0.3,0.8-0.4,1.4S95,83,94.9,83.6c-0.3,1.6-0.5,2.8-0.4,3.5S94.8,88.2,95.4,88.2"/>
	<path clip-path="url(#SVGID_2_)" fill="#FFFFFF" d="M106.1,90.1h-3.5l2.6-12.7h3.5L106.1,90.1z M109.8,72l-0.6,2.8h-3.5l0.6-2.8
		H109.8z"/>
	<path clip-path="url(#SVGID_2_)" fill="#FFFFFF" d="M113.4,90.4c-1.1,0-2-0.2-2.6-0.5c-0.6-0.3-1-0.8-1.3-1.4
		c-0.2-0.6-0.3-1.3-0.3-2.1c0.1-0.8,0.2-1.7,0.4-2.7c0.2-0.9,0.4-1.7,0.7-2.5s0.6-1.5,1.1-2c0.5-0.6,1.1-1.1,1.8-1.4
		c0.8-0.3,1.7-0.5,2.9-0.5s2.1,0.2,2.7,0.5c0.6,0.3,1,0.8,1.3,1.4c0.2,0.6,0.3,1.3,0.3,2c-0.1,0.8-0.2,1.6-0.4,2.5
		c-0.2,1-0.4,1.9-0.7,2.7c-0.3,0.8-0.7,1.5-1.2,2.1s-1.1,1.1-1.8,1.4C115.4,90.2,114.5,90.4,113.4,90.4 M113.8,88.1
		c0.3,0,0.6-0.1,0.8-0.2c0.2-0.1,0.5-0.4,0.7-0.7c0.2-0.3,0.4-0.8,0.5-1.4s0.4-1.4,0.6-2.4c0.1-0.7,0.2-1.2,0.3-1.7
		c0.1-0.5,0.1-0.9,0-1.2s-0.2-0.6-0.3-0.7c-0.2-0.2-0.5-0.3-0.8-0.3c-0.4,0-0.7,0.1-1,0.3s-0.5,0.4-0.6,0.7s-0.3,0.7-0.5,1.2
		c-0.1,0.5-0.3,1.1-0.4,1.7c-0.2,1-0.3,1.8-0.4,2.4c-0.1,0.6-0.1,1.1,0,1.4c0,0.3,0.2,0.6,0.3,0.7C113.2,88,113.5,88.1,113.8,88.1"
		/>
</g>
<g>
	<path fill="#FFFFFF" d="M50.4,118.6h-1.4l0.3-1.6h1.4L50.4,118.6z"/>
	<path fill="#FFFFFF" d="M53.8,118.6h-1.4l0.3-1.6h1.4L53.8,118.6z"/>
	<path fill="#FFFFFF" d="M57.2,118.6h-1.4l0.3-1.6h1.4L57.2,118.6z"/>
	<path fill="#FFFFFF" d="M60.6,118.6h-1.3l2.3-10.8h1.3l-0.9,4h0c0.3-0.3,0.6-0.5,0.9-0.7c0.3-0.2,0.7-0.2,1-0.2
		c0.6,0,1.1,0.1,1.4,0.4c0.3,0.2,0.5,0.6,0.6,1s0.1,0.8,0,1.3c-0.1,0.5-0.2,1-0.3,1.4c-0.2,0.8-0.4,1.5-0.6,2s-0.5,0.9-0.8,1.2
		c-0.3,0.3-0.6,0.4-0.9,0.5c-0.3,0.1-0.6,0.1-0.9,0.1c-0.4,0-0.7-0.1-1-0.3c-0.2-0.2-0.4-0.4-0.6-0.8h0L60.6,118.6z M61.5,114.5
		c-0.1,0.3-0.1,0.6-0.2,1s-0.1,0.7-0.1,1.1c0,0.3,0.1,0.6,0.2,0.8s0.4,0.3,0.8,0.3c0.4,0,0.7-0.1,1-0.3s0.5-0.4,0.6-0.7
		c0.2-0.3,0.3-0.6,0.4-0.9c0.1-0.3,0.2-0.6,0.2-0.9c0.1-0.5,0.2-1,0.2-1.3c0.1-0.4,0.1-0.7,0-1c-0.1-0.3-0.2-0.5-0.3-0.6
		c-0.2-0.1-0.4-0.2-0.8-0.2c-0.3,0-0.6,0.1-0.9,0.3s-0.4,0.4-0.6,0.7s-0.3,0.5-0.4,0.9C61.6,114,61.5,114.3,61.5,114.5z"/>
	<path fill="#FFFFFF" d="M68.8,115.2c-0.1,0.5-0.2,1-0.2,1.3s0,0.6,0.1,0.8c0.1,0.2,0.2,0.3,0.4,0.4c0.2,0.1,0.4,0.1,0.6,0.1
		c0.4,0,0.8-0.1,1.1-0.4s0.5-0.6,0.6-1h1.4c-0.2,0.8-0.6,1.5-1.1,1.9c-0.6,0.4-1.3,0.6-2.1,0.6c-0.4,0-0.8,0-1.1-0.1
		c-0.3-0.1-0.6-0.3-0.8-0.5s-0.3-0.7-0.4-1.2s0-1.2,0.2-2c0.1-0.5,0.3-1.1,0.4-1.6c0.2-0.5,0.4-0.9,0.7-1.3c0.3-0.4,0.6-0.7,1.1-0.9
		c0.4-0.2,1-0.3,1.7-0.3c0.6,0,1,0.1,1.3,0.2c0.3,0.2,0.6,0.4,0.7,0.7c0.1,0.3,0.2,0.7,0.2,1.1c0,0.5-0.1,1-0.2,1.6l-0.1,0.6H68.8z
		 M72.1,114.3c0.1-0.5,0.2-1,0.2-1.3c0-0.3-0.1-0.6-0.2-0.8c-0.1-0.2-0.2-0.3-0.4-0.3s-0.4-0.1-0.6-0.1c-0.2,0-0.4,0-0.6,0.1
		c-0.2,0.1-0.4,0.2-0.5,0.4c-0.2,0.2-0.3,0.4-0.5,0.8c-0.1,0.3-0.3,0.7-0.4,1.3H72.1z"/>
	<path fill="#FFFFFF" d="M82.2,118.6l1.1-5.1c0-0.2,0.1-0.4,0.1-0.6c0-0.2,0-0.4-0.1-0.5c-0.1-0.1-0.2-0.2-0.4-0.3
		c-0.2-0.1-0.4-0.1-0.6-0.1c-0.3,0-0.6,0.1-0.8,0.2c-0.2,0.1-0.4,0.3-0.6,0.5c-0.2,0.2-0.3,0.4-0.4,0.7c-0.1,0.3-0.2,0.6-0.3,0.9
		l-0.9,4.5h-1.3l2.3-10.8h1.3l-0.9,4.2h0.1c0.2-0.2,0.3-0.4,0.5-0.5c0.2-0.1,0.3-0.3,0.5-0.3s0.4-0.1,0.6-0.2c0.2,0,0.4-0.1,0.7-0.1
		c0.7,0,1.1,0.2,1.4,0.5c0.3,0.4,0.3,1,0.1,1.8l-1.1,5.4H82.2z"/>
	<path fill="#FFFFFF" d="M89.8,117.5L89.8,117.5c-0.3,0.4-0.6,0.8-1,1c-0.4,0.2-0.8,0.3-1.3,0.3c-0.4,0-0.7-0.1-1-0.2
		c-0.2-0.1-0.4-0.3-0.5-0.5s-0.2-0.5-0.2-0.8c0-0.3,0-0.6,0.1-1c0.1-0.6,0.3-1,0.7-1.3c0.3-0.3,0.7-0.6,1.1-0.7
		c0.4-0.1,0.9-0.2,1.4-0.3c0.5,0,0.9,0,1.4,0c0.1-0.3,0.1-0.5,0.2-0.7c0-0.3,0-0.5,0-0.7c0-0.2-0.1-0.4-0.3-0.5
		c-0.2-0.1-0.4-0.2-0.7-0.2c-0.4,0-0.8,0.1-1,0.4c-0.3,0.3-0.4,0.6-0.5,1h-1.4c0.2-0.8,0.6-1.4,1.1-1.8c0.5-0.3,1.2-0.5,2-0.5
		c0.5,0,0.9,0.1,1.2,0.2c0.3,0.1,0.5,0.3,0.7,0.5c0.1,0.2,0.2,0.4,0.2,0.7c0,0.3,0,0.6-0.1,0.9l-0.8,3.6c-0.1,0.3-0.1,0.6-0.1,0.9
		s-0.1,0.6-0.1,0.9h-1.4L89.8,117.5z M90.4,114.8c-0.3,0-0.6,0-1,0c-0.3,0-0.6,0.1-0.9,0.2s-0.5,0.2-0.8,0.4
		c-0.2,0.2-0.4,0.5-0.5,0.9c-0.1,0.4-0.1,0.7,0.1,1c0.1,0.3,0.4,0.4,0.8,0.4c0.2,0,0.4,0,0.6-0.1c0.2-0.1,0.4-0.2,0.6-0.4
		c0.2-0.2,0.4-0.5,0.6-0.9C90.1,115.9,90.3,115.4,90.4,114.8z"/>
	<path fill="#FFFFFF" d="M96.1,111.9L96.1,111.9c0.3-0.3,0.6-0.6,1-0.8c0.3-0.2,0.7-0.3,1.1-0.3c0.3,0,0.6,0,0.9,0.1
		c0.3,0.1,0.5,0.3,0.7,0.5c0.2,0.3,0.3,0.7,0.3,1.2c0,0.5,0,1.2-0.2,2c-0.1,0.5-0.2,0.9-0.4,1.4c-0.1,0.5-0.3,0.9-0.6,1.3
		c-0.3,0.4-0.6,0.7-1,1c-0.4,0.2-0.9,0.4-1.5,0.4c-0.4,0-0.7-0.1-0.9-0.2c-0.2-0.2-0.4-0.4-0.6-0.7h0l-0.8,3.6h-1.3L95,111h1.3
		L96.1,111.9z M96.3,117.7c0.3,0,0.6-0.1,0.8-0.2c0.2-0.1,0.4-0.3,0.6-0.6s0.3-0.6,0.4-1s0.2-0.8,0.3-1.3c0.1-0.3,0.1-0.6,0.2-0.9
		c0.1-0.3,0.1-0.6,0-0.9c0-0.3-0.1-0.5-0.3-0.7c-0.2-0.2-0.5-0.3-0.9-0.3c-0.4,0-0.7,0.1-1,0.3c-0.2,0.2-0.4,0.5-0.6,0.8
		c-0.1,0.3-0.3,0.7-0.3,1.1c-0.1,0.4-0.2,0.7-0.2,1c-0.1,0.3-0.1,0.5-0.1,0.8s-0.1,0.6,0,0.8c0,0.3,0.1,0.5,0.3,0.7
		C95.7,117.7,95.9,117.7,96.3,117.7z"/>
	<path fill="#FFFFFF" d="M103.7,111.9L103.7,111.9c0.3-0.3,0.6-0.6,1-0.8c0.3-0.2,0.7-0.3,1.1-0.3c0.3,0,0.6,0,0.9,0.1
		c0.3,0.1,0.5,0.3,0.7,0.5c0.2,0.3,0.3,0.7,0.3,1.2c0,0.5,0,1.2-0.2,2c-0.1,0.5-0.2,0.9-0.4,1.4c-0.1,0.5-0.3,0.9-0.6,1.3
		c-0.3,0.4-0.6,0.7-1,1c-0.4,0.2-0.9,0.4-1.5,0.4c-0.4,0-0.7-0.1-0.9-0.2c-0.2-0.2-0.4-0.4-0.6-0.7h0l-0.8,3.6h-1.3l2.2-10.4h1.3
		L103.7,111.9z M103.9,117.7c0.3,0,0.6-0.1,0.8-0.2c0.2-0.1,0.4-0.3,0.6-0.6s0.3-0.6,0.4-1s0.2-0.8,0.3-1.3c0.1-0.3,0.1-0.6,0.2-0.9
		c0.1-0.3,0.1-0.6,0-0.9c0-0.3-0.1-0.5-0.3-0.7c-0.2-0.2-0.5-0.3-0.9-0.3c-0.4,0-0.7,0.1-1,0.3c-0.2,0.2-0.4,0.5-0.6,0.8
		c-0.1,0.3-0.3,0.7-0.3,1.1c-0.1,0.4-0.2,0.7-0.2,1c-0.1,0.3-0.1,0.5-0.1,0.8s-0.1,0.6,0,0.8c0,0.3,0.1,0.5,0.3,0.7
		C103.3,117.7,103.6,117.7,103.9,117.7z"/>
	<path fill="#FFFFFF" d="M111.2,117.2L111.2,117.2l3.2-6.2h1.4l-5.7,10.4h-1.3l1.5-2.9l-1-7.6h1.5L111.2,117.2z"/>
	<path fill="#FFFFFF" d="M117.6,118.6h-1.4l0.3-1.6h1.4L117.6,118.6z M116.8,116.1l1.5-8.3h1.7l-2.1,8.3H116.8z"/>
</g>
</svg>
