<svg xmlns="http://www.w3.org/2000/svg" viewBox="0 0 262.62 115.64"><defs><style>.cls-1{fill:#282522;}.cls-2{fill:#fff;}.cls-3{fill:#dcb313;}.cls-4{fill:#bd3218;}</style></defs><title>Asset 3</title><g id="Layer_2" data-name="Layer 2"><g id="Vrstva_1" data-name="Vrstva 1"><path class="cls-1" d="M258.8,68.9,225,45.39c.22.15.43.31.64.49l-6.89-5.78a8.89,8.89,0,0,1,2.36,10.54l17.55-38A8.93,8.93,0,0,0,224.78,2.13L191.64,30.28a9,9,0,0,1,10.88-.54L185.65,18.09a8.93,8.93,0,0,0-14,8.37l.44,3.69a8.63,8.63,0,0,1,0-1.49,1.48,1.48,0,0,1,0,.21.83.83,0,0,1,.15-.25,1.65,1.65,0,0,1,.6-.44,17.36,17.36,0,0,1-3.79.06c-.86,0-1.75-.08-2.68-.08-1.89,0-4,.06-5.52.12a9,9,0,0,1,3,.4,10.74,10.74,0,0,0-3.21-.49H145.18a10.68,10.68,0,0,0-9.41,5.6l-5.63,10.28a8.94,8.94,0,0,1,16.79,4.43L147.1,39a10.73,10.73,0,0,0-3-7.61l-.07-.08a10.8,10.8,0,0,0-7.61-3.16H122.63a10.79,10.79,0,0,0-7.54,3.1,10.66,10.66,0,0,0-3,5.71,8.95,8.95,0,0,1,15-4.88,10.61,10.61,0,0,0-3.93-2.38,40.3,40.3,0,0,0-13-2.17A30.84,30.84,0,0,0,81,48.05a8.95,8.95,0,0,1,16.87.1,29.51,29.51,0,0,0-8.21-12.36,33.28,33.28,0,0,0-22.34-8.21A33.27,33.27,0,0,0,45,35.8a29.1,29.1,0,0,0-6.09,7.62,8.94,8.94,0,0,1,8.57-4.56l-1.59-.13a8.93,8.93,0,0,1,7.84,6.43,21.78,21.78,0,0,0-8.29-11.88c-4.63-3.35-10.57-5.07-17.62-5.08H10.7A10.68,10.68,0,0,0,0,38.85V77.64a10.7,10.7,0,0,0,3.17,7.57l-.08-.08a10.77,10.77,0,0,0,7.6,3.17h18a8.92,8.92,0,0,1-8.94-8.91v26.78a8.92,8.92,0,0,0,8.94,8.91H44a8.92,8.92,0,0,0,8.94-8.91v-5.3a8.94,8.94,0,0,1-16.94,4l2.64,5.3a8.94,8.94,0,0,0,8,4.95h26a8.94,8.94,0,0,0,8.7-6.87l1-4.11A8.94,8.94,0,0,1,73.6,111h6.33a8.93,8.93,0,0,1-8.64-6.62l1.1,4.11A8.93,8.93,0,0,0,81,115.08h31.13a8.91,8.91,0,0,0,8-12.93,8.85,8.85,0,0,1-.24,8.44,8.94,8.94,0,0,1-7.23,4.44,27.21,27.21,0,0,0,17.37-7.2,24.94,24.94,0,0,0,6.13-9.08,8.94,8.94,0,0,1-17.26-3.26v10.69a8.92,8.92,0,0,0,8.94,8.91h15.53a8.92,8.92,0,0,0,8.94-8.91v-11a8.94,8.94,0,0,1-17.24,3.29,25.83,25.83,0,0,0,7.06,10,30.18,30.18,0,0,0,20,7.13c.69,0,1.41,0,2.21-.08a8.94,8.94,0,0,1-8.69-5.18l0,.09a9,9,0,0,0,8.33,5.2c1.34,0,13.3-.37,21-2.93,10.77-3.59,14.19-14.12,14.54-15.3a9.06,9.06,0,0,0,.36-2.13v-.19a8.91,8.91,0,0,1-.81,3.32l12-26.07a8.94,8.94,0,0,1-9.45,5.09L252.35,85A8.91,8.91,0,0,0,258.8,68.9"/><path class="cls-2" d="M160.67,75.34,148,56.64,159.41,39a1.94,1.94,0,0,0,.31-1,1.87,1.87,0,0,0-.24-.94,1.94,1.94,0,0,0-1.71-1H142.45a1.94,1.94,0,0,0-1.71,1l-5.21,9.52c.08-4.28.16-8.58.16-8.58a2,2,0,0,0-1.95-2H120.07a1.94,1.94,0,0,0-1.72,1,31.13,31.13,0,0,0-9.94-1.65,21.88,21.88,0,0,0-20.65,14c-3.15-8.45-11.42-14-21.93-14-9.38,0-17,4.45-20.74,11.43C43.26,39.94,37,36,27.62,36h-17a2,2,0,0,0-2,2v38.5a2,2,0,0,0,2,1.95H47a2,2,0,0,0,2-1.95,1.9,1.9,0,0,0-.33-1.08L45,69.92s1-.61,1.51.1c4.14,5.51,10.92,9,19.36,9,10.6,0,18.72-5.32,21.88-13.61A21.31,21.31,0,0,0,107.84,79c2.28,0,7.71-.39,10.54-1.59a1.94,1.94,0,0,0,1.68,1l5.83,4.3,7.85-4.3a1.94,1.94,0,0,0,1.95-1.95s-.08-2.46-.17-6.78c1.54-.26,5.54,7.74,5.54,7.74.35.61,2,3.48,2.71,3.48l15.28-2.5a2,2,0,0,0,1.72-1,1.89,1.89,0,0,0,.23-.91,1.94,1.94,0,0,0-.33-1.08"/><path class="cls-3" d="M206.45,49.82l18.62-33.74L196.05,42l-12.8-9.61,2.38,18.09L172.3,61.28l14.94,1.63,2.95,23L200,64.27l39,5.93Zm-4.14,19-13.8,29.87-3.85-32.5L166,63.35l16.69-14-2.8-23.6,16.85,11.63L229.84,9.21,212,47.92l41,28.52Z"/><path class="cls-4" d="M161.34,91.91a4,4,0,0,1-4.2-4.35c0-2.21,1.29-4.44,4.2-4.44s4.19,2.23,4.19,4.44a4,4,0,0,1-4.19,4.35m-53.19-.07V83.18c2.73.29,3.86,1.67,3.86,4.55,0,2.41-1.3,3.79-3.86,4.11m25.6-31.55c.31,1.58,1.53,3,2.35,4.49L138.5,69h-4.9l-.16-8.7ZM58,96.36l-3-4.41c-.11-.16-.22-.29-.34-.44,3.51-1.88,5-4.68,5-9.2a13.79,13.79,0,0,0-1.44-6.36A25,25,0,0,0,64.77,77ZM24.4,55V48.44h1.07c2.41,0,4.51.35,4.51,3.31S27.68,55,25.37,55Zm41.43-5c4.46,0,7.24,3.42,7.24,7.51,0,4.39-3,7.4-7.24,7.4s-7.22-3-7.22-7.4c0-4.09,2.77-7.51,7.22-7.51m95.51,18.49a23.13,23.13,0,0,0-7,1l-8.69-12.85,12.09-18.74H142.45L135.7,50.28a15,15,0,0,0-1.95,4.34h-.31l.31-16.7H120.07V72.3A18.08,18.08,0,0,0,118,71.19l.29-10.09a11.21,11.21,0,0,1-8,3.58,7.7,7.7,0,0,1-7.84-7.51A7.56,7.56,0,0,1,110,49.66c3.17,0,6,1.79,8.25,3.88l-.4-14.65a29.37,29.37,0,0,0-9.43-1.58A20,20,0,0,0,88.23,57.53a19.47,19.47,0,0,0,4.09,12.08V93.54L83.53,69a19.27,19.27,0,0,0,3.67-11.7c0-12.1-9.63-20-21.37-20s-21.36,7.86-21.36,20a19.21,19.21,0,0,0,4,12.1A23.64,23.64,0,0,0,44.13,69H42l-3.41-5.07a9.83,9.83,0,0,0-2.35-2.3v-.3c5.22-1.74,7.48-4.19,7.48-10,0-9.7-7.38-13.37-16.09-13.37h-17v38.5H24.4V64.06h.25l3.11,6.26v33.35a2,2,0,0,0,2,1.94H41.39a2,2,0,0,0,1.95-1.94V101l1.75,3.52a2,2,0,0,0,1.75,1.08H70.18a2,2,0,0,0,1.9-1.5s.32-1.39.61-2.58h6l.71,2.64a2,2,0,0,0,1.89,1.44H93.87l.18,0,.21,0h15.12c7.84,0,14-3.81,16.78-9.88v7.94a2,2,0,0,0,1.95,1.94H141a1.94,1.94,0,0,0,1.94-1.94V95.46c3,6.54,9.75,10.67,18.42,10.67,11.84,0,20.11-7.71,20.11-18.75S173,68.47,161.34,68.47"/><path class="cls-2" d="M73.27,91.81l2.17-10h.44c.22,1.39.44,2.82.79,4.22l1.4,5.77ZM42.21,85.43h-.82V79.87h.91c2,0,3.84.3,3.84,2.83s-2,2.73-3.93,2.73M69,70.93,58.59,100.68,53.45,93a8.33,8.33,0,0,0-2-2v-.26c4.44-1.47,6.36-3.56,6.36-8.51,0-8.25-6.27-11.38-13.68-11.38H29.71v32.74H41.39V93.16h.22l5.23,10.51H70.18l1-4.08h9l1.09,4.08H93.87L82.16,70.93Z"/><path class="cls-2" d="M106.95,93.85h-.74V81.18h.74c4.36,0,7,2,7,6.56,0,4.3-3.05,6.12-7,6.12m-.53-22.93H94.27v32.74h15.12c9.63,0,16.51-6.17,16.51-15.89,0-12-8.45-16.85-19.47-16.85"/><rect class="cls-2" x="128.11" y="70.93" width="12.86" height="32.74"/><path class="cls-2" d="M161.34,93.85a5.93,5.93,0,0,1-6.15-6.29,6.15,6.15,0,1,1,12.28,0,5.93,5.93,0,0,1-6.14,6.29m0-23.45c-10,0-18.17,6.69-18.17,17,0,10.51,8.14,16.81,18.17,16.81s18.16-6.29,18.16-16.81c0-10.29-8.19-17-18.16-17"/></g></g></svg>